<?xml version="1.0" encoding="utf-8"?>
<!-- Generator: Adobe Illustrator 21.1.0, SVG Export Plug-In . SVG Version: 6.00 Build 0)  -->
<svg version="1.1" id="Layer_1" xmlns="http://www.w3.org/2000/svg" xmlns:xlink="http://www.w3.org/1999/xlink" x="0px" y="0px"
	 viewBox="0 0 125 37.6" style="enable-background:new 0 0 125 37.6;" xml:space="preserve">
<style type="text/css">
	.st0{fill:#FFFFFF;}
</style>
<path class="st0" d="M6.5,3.6v11.7c0,0.2-0.2,0.4-0.4,0.4H3.9c-0.2,0-0.4-0.2-0.4-0.4V3.6c0-0.1-0.1-0.2-0.2-0.2H0.4
	C0.2,3.3,0,3.1,0,2.9V0.7c0-0.2,0.2-0.4,0.4-0.4h9.1c0.2,0,0.4,0.2,0.4,0.4v2.2c0,0.2-0.2,0.4-0.4,0.4H6.7C6.6,3.3,6.5,3.4,6.5,3.6z
	 M19.2,0.2h2.2c0.2,0,0.4,0.2,0.4,0.4v14.6c0,0.2-0.2,0.4-0.4,0.4h-2.2c-0.2,0-0.4-0.2-0.4-0.4V9.7c0-0.1-0.1-0.2-0.2-0.2h-3.4
	c-0.1,0-0.2,0.1-0.2,0.2v5.5c0,0.2-0.3,0.4-0.6,0.4h-2.1c-0.2,0-0.4-0.2-0.4-0.4V0.7c0-0.2,0.2-0.4,0.4-0.4h2.2
	c0.2,0,0.4,0.2,0.4,0.4v5.5c0,0.1,0.1,0.2,0.2,0.2h3.4c0.1,0,0.2-0.1,0.2-0.2V0.7C18.7,0.4,18.9,0.2,19.2,0.2z M27.1,12.4
	c0,0.1,0.1,0.2,0.2,0.2h5.2c0.2,0,0.4,0.2,0.4,0.4v2.2c0,0.2-0.2,0.4-0.4,0.4h-8.1c-0.2,0-0.4-0.2-0.4-0.4V0.7
	c0-0.2,0.2-0.4,0.4-0.4h8c0.2,0,0.4,0.2,0.4,0.4v2.2c0,0.2-0.2,0.4-0.4,0.4h-5.1c-0.1,0-0.2,0.1-0.2,0.2v2.7c0,0.1,0.1,0.2,0.2,0.2
	h5c0.2,0,0.4,0.2,0.4,0.4v2.2c0,0.2-0.2,0.4-0.4,0.4h-5c-0.1,0-0.2,0.1-0.2,0.2V12.4z M50.2,4.8c0,1-0.5,2.1-1.1,2.8
	c-0.1,0.1-0.1,0.3,0,0.4c0.7,0.6,1.3,1.9,1.3,3c0,2.9-1.8,4.8-4.5,4.8h-5.2c-0.2,0-0.4-0.2-0.4-0.4V0.7c0-0.2,0.2-0.4,0.4-0.4h5.2
	C48.4,0.2,50.2,2.3,50.2,4.8z M45.8,6.2c0.8,0,1.5-0.7,1.5-1.4s-0.7-1.4-1.5-1.4h-2.3c-0.1,0-0.2,0.1-0.2,0.2V6
	c0,0.1,0.1,0.2,0.2,0.2H45.8z M43.5,9.3c-0.1,0-0.2,0.1-0.2,0.2v2.9c0,0.1,0.1,0.2,0.2,0.2h2.3c1,0,1.5-0.8,1.5-1.7
	c0-0.9-0.6-1.7-1.5-1.7H43.5z M55.3,12.4c0,0.1,0.1,0.2,0.2,0.2h4.6c0.2,0,0.4,0.2,0.4,0.4v2.2c0,0.2-0.2,0.4-0.4,0.4h-7.5
	c-0.2,0-0.4-0.2-0.4-0.4V0.7c0-0.2,0.2-0.4,0.4-0.4h2.2c0.2,0,0.4,0.2,0.4,0.4V12.4z M72.3,4.9c0.2,1.9,0.2,4.3,0,6.2
	C72,13.7,70.1,16,67,16c-3,0-4.9-2.2-5.3-4.9c-0.2-1.9-0.2-4.3,0-6.2C62.1,2.2,64,0,67,0C70.1,0,72,2.2,72.3,4.9z M69.1,11.1
	c0.2-1.9,0.2-4.3,0-6.2c-0.1-1-0.8-1.8-2.1-1.8c-1.3,0-2,0.8-2.1,1.8c-0.2,1.9-0.2,4.3,0,6.2c0.1,1,0.8,1.8,2.1,1.8
	C68.4,12.8,69,12,69.1,11.1z M81.9,10.2c0-0.1-0.1-0.2-0.2-0.2h-1.5c-0.2,0-0.4-0.2-0.4-0.4V7.4c0-0.2,0.2-0.4,0.4-0.4h4.3
	c0.2,0,0.4,0.2,0.4,0.4v3.7c0,2.7-2.2,4.8-5.3,4.8c-3,0-4.9-2.2-5.3-4.9c-0.2-1.9-0.2-4.3,0-6.2C74.7,2.2,76.6,0,79.6,0
	c3,0,5.3,2.1,5.3,5v0c0,0.2-0.2,0.4-0.4,0.4h-2.2c-0.2,0-0.4-0.2-0.4-0.4v0c0-0.9-0.8-1.9-2.2-1.9c-1.3,0-2,0.8-2.1,1.8
	c-0.2,1.9-0.2,4.3,0,6.2c0.1,1,0.8,1.8,2.1,1.8c1.3,0,2.2-0.7,2.2-1.7V10.2z M10.7,26.5c0.2,1.9,0.2,4.3,0,6.2
	c-0.3,2.7-2.2,4.9-5.3,4.9s-4.9-2.2-5.3-4.9c-0.2-1.9-0.2-4.3,0-6.2c0.3-2.7,2.2-4.9,5.3-4.9S10.4,23.9,10.7,26.5z M7.6,32.7
	c0.2-1.9,0.2-4.3,0-6.2c-0.1-1-0.8-1.8-2.1-1.8s-2,0.8-2.1,1.8c-0.2,1.9-0.2,4.3,0,6.2c0.1,1,0.8,1.8,2.1,1.8S7.5,33.7,7.6,32.7z
	 M15.9,31.4v5.5c0,0.2-0.2,0.4-0.4,0.4h-2.2c-0.2,0-0.4-0.2-0.4-0.4V22.3c0-0.2,0.2-0.4,0.4-0.4H21c0.2,0,0.4,0.2,0.4,0.4v2.2
	c0,0.2-0.2,0.4-0.4,0.4h-4.9c-0.1,0-0.2,0.1-0.2,0.2v2.7c0,0.1,0.1,0.2,0.2,0.2h4.6c0.2,0,0.4,0.2,0.4,0.4v2.2
	c0,0.2-0.2,0.4-0.4,0.4h-4.6C16,31.2,15.9,31.2,15.9,31.4z M38.2,26.4c0,1-0.5,2.1-1.1,2.8c-0.1,0.1-0.1,0.3,0,0.4
	c0.7,0.6,1.3,1.9,1.3,3c0,2.9-1.8,4.8-4.5,4.8h-5.2c-0.2,0-0.4-0.2-0.4-0.4V22.3c0-0.2,0.2-0.4,0.4-0.4h5.2
	C36.3,21.9,38.2,23.9,38.2,26.4z M33.7,27.8c0.8,0,1.5-0.7,1.5-1.4S34.5,25,33.7,25h-2.3c-0.1,0-0.2,0.1-0.2,0.2v2.4
	c0,0.1,0.1,0.2,0.2,0.2H33.7z M31.4,30.9c-0.1,0-0.2,0.1-0.2,0.2V34c0,0.1,0.1,0.2,0.2,0.2h2.3c0.9,0,1.5-0.8,1.5-1.7
	c0-0.9-0.6-1.7-1.5-1.7H31.4z M43.1,36.9c0,0.2-0.2,0.4-0.4,0.4h-2.2c-0.2,0-0.4-0.2-0.4-0.4V22.3c0-0.2,0.2-0.4,0.4-0.4h2.2
	c0.2,0,0.4,0.2,0.4,0.4V36.9z M48.4,34c0,0.1,0.1,0.2,0.2,0.2h4.6c0.2,0,0.4,0.2,0.4,0.4v2.2c0,0.2-0.2,0.4-0.4,0.4h-7.5
	c-0.2,0-0.4-0.2-0.4-0.4V22.3c0-0.2,0.2-0.4,0.4-0.4h2.2c0.2,0,0.4,0.2,0.4,0.4V34z M58.9,34c0,0.1,0.1,0.2,0.2,0.2h4.6
	c0.2,0,0.4,0.2,0.4,0.4v2.2c0,0.2-0.2,0.4-0.4,0.4h-7.5c-0.2,0-0.4-0.2-0.4-0.4V22.3c0-0.2,0.2-0.4,0.4-0.4h2.2
	c0.2,0,0.4,0.2,0.4,0.4V34z M77.6,31.8c0-0.1-0.1-0.2-0.2-0.2h-1.5c-0.2,0-0.4-0.2-0.4-0.4V29c0-0.2,0.2-0.4,0.4-0.4h4.3
	c0.2,0,0.4,0.2,0.4,0.4v3.7c0,2.7-2.2,4.8-5.3,4.8c-3,0-4.9-2.2-5.3-4.9c-0.2-1.9-0.2-4.3,0-6.2c0.3-2.7,2.2-4.9,5.3-4.9
	s5.3,2.1,5.3,5v0c0,0.2-0.2,0.4-0.4,0.4H78c-0.2,0-0.4-0.2-0.4-0.4v0c0-0.9-0.8-1.9-2.2-1.9c-1.3,0-2,0.8-2.1,1.8
	c-0.2,1.9-0.2,4.3,0,6.2c0.1,1,0.8,1.8,2.1,1.8c1.3,0,2.2-0.7,2.2-1.7V31.8z M89.3,34.7c0-0.2-0.1-0.3-0.3-0.3h-3.4
	c-0.2,0-0.3,0.1-0.3,0.3L84.6,37c0,0.2-0.2,0.3-0.4,0.3h-2.3c-0.4,0-0.5-0.2-0.4-0.4l4-14.7c0-0.2,0.2-0.3,0.4-0.3h3
	c0.2,0,0.4,0.1,0.4,0.3l3.9,14.7c0,0.2-0.1,0.4-0.4,0.4h-2.3c-0.2,0-0.4-0.1-0.4-0.3L89.3,34.7z M88.5,31.1l-1.1-5.3
	c0-0.1,0-0.1-0.1-0.1h0c-0.1,0-0.1,0-0.1,0.1l-1.1,5.3c0,0.2,0,0.2,0.2,0.2h2C88.4,31.3,88.5,31.2,88.5,31.1z M98.7,25.2v11.7
	c0,0.2-0.2,0.4-0.4,0.4h-2.2c-0.2,0-0.4-0.2-0.4-0.4V25.2c0-0.1-0.1-0.2-0.2-0.2h-2.8c-0.2,0-0.4-0.2-0.4-0.4v-2.2
	c0-0.2,0.2-0.4,0.4-0.4h9.1c0.2,0,0.4,0.2,0.4,0.4v2.2c0,0.2-0.2,0.4-0.4,0.4h-2.8C98.8,25,98.7,25.1,98.7,25.2z M107,34
	c0,0.1,0.1,0.2,0.2,0.2h5.2c0.2,0,0.4,0.2,0.4,0.4v2.2c0,0.2-0.2,0.4-0.4,0.4h-8.1c-0.2,0-0.4-0.2-0.4-0.4V22.3
	c0-0.2,0.2-0.4,0.4-0.4h8c0.2,0,0.4,0.2,0.4,0.4v2.2c0,0.2-0.2,0.4-0.4,0.4h-5.1c-0.1,0-0.2,0.1-0.2,0.2v2.7c0,0.1,0.1,0.2,0.2,0.2
	h5c0.2,0,0.4,0.2,0.4,0.4v2.2c0,0.2-0.2,0.4-0.4,0.4h-5c-0.1,0-0.2,0.1-0.2,0.2V34z M119.5,31c-2.8-0.6-4.9-1.8-4.9-4.7
	c0-2.6,2.1-4.7,5.1-4.7c3,0,5.1,2.1,5.1,4.7v0.3c0,0.2-0.2,0.4-0.4,0.4H122c-0.2,0-0.4-0.2-0.4-0.4v-0.3c0-0.9-0.7-1.7-2-1.7
	c-1.2,0-1.9,0.7-1.9,1.5c0,0.8,0.8,1.4,2,1.6c3.1,0.6,5.3,1.9,5.3,5c0,2.9-2.3,4.8-5.4,4.8c-3,0-5.3-2.1-5.3-4.8v-0.7
	c0-0.2,0.2-0.4,0.4-0.4h2.2c0.2,0,0.4,0.2,0.4,0.4v0.7c0,1,0.8,1.8,2.1,1.8c1.3,0,2.2-0.8,2.2-1.8C121.8,31.8,121.2,31.4,119.5,31z"
	/>
</svg>
