<?xml version="1.0" encoding="utf-8"?>
<!-- Generator: Adobe Illustrator 21.1.0, SVG Export Plug-In . SVG Version: 6.00 Build 0)  -->
<svg version="1.1" id="Layer_1" xmlns="http://www.w3.org/2000/svg" xmlns:xlink="http://www.w3.org/1999/xlink" x="0px" y="0px"
	 viewBox="0 0 347.5 56" style="enable-background:new 0 0 347.5 56;" xml:space="preserve">
<path d="M121.3,15.5c-9.5,0-15,6.3-16.1,14.4c-0.4,3.1-0.4,8.5,0,11.6c1,8.1,6.6,14.4,16.1,14.4c8.6,0,13.9-5,15.7-12.3
	c0.3-1.2-0.5-1.7-1.3-1.7h-6.4c-0.7,0-1.4,0.3-1.8,1.3c-1,2.5-3.1,3.3-6.1,3.3c-3.7,0-6.8-2.3-6.8-6.6c0-0.7,0.5-1.2,1.2-1.2h19.9
	c0.9,0,1.6-0.7,1.6-1.6v-6.4C137.2,21,130.6,15.5,121.3,15.5z M127.2,30.2h-11.8c-0.5,0-0.8-0.2-0.8-0.7c0-2.9,2.3-4.9,6.7-4.9
	c3.3,0,6.6,1.6,6.6,4.9C127.9,30,127.6,30.2,127.2,30.2z M19,0C8.3,0,1.7,7.8,0.6,17.1c-0.8,6.5-0.8,15.2,0,21.7
	C1.7,48.2,8.3,56,19,56c10.6,0,18.5-7.7,18.5-17V26c0-0.9-0.7-1.6-1.6-1.6H20.8c-0.9,0-1.6,0.7-1.6,1.6v7.4c0,0.9,0.7,1.6,1.6,1.6
	h5.3c0.5,0,0.8,0.3,0.8,0.8V39c0,3.5-3.2,6-7.8,6c-4.7,0-7.1-2.8-7.5-6.2c-0.8-6.5-0.8-15.2,0-21.7c0.4-3.4,2.8-6.2,7.5-6.2
	c4.9,0,7.6,3.6,7.6,6.7v0.1c0,0.9,0.7,1.6,1.6,1.6H36c0.9,0,1.6-0.8,1.6-1.6v-0.1C37.5,7.4,29.7,0,19,0z M56,15.5
	c-9.3,0-15,5.6-15,11.7c0,0.9,0.7,1.6,1.6,1.6h5.6c1.4,0,1.8-0.2,2.1-1.5c0.5-2.5,3.7-2.9,5.4-2.9c3.4,0,6,1.6,6,4.7v1.2
	c0,0.5-0.3,0.8-0.8,0.8h-7.9c-8.9,0-13.3,6.7-13.3,12.1c0,8.1,5.6,12.8,14.6,12.8c5.7,0,7.9-2.9,9.3-2.9c1,0,1.1,0.9,1.6,1.6
	c0.3,0.4,0.6,0.5,1.1,0.5H70c0.9,0,1.6-0.7,1.6-1.6v-24C71.6,20.6,65.4,15.5,56,15.5z M62,42c0,4-3.4,5.4-7.8,5.4
	c-2.8,0-5.1-1.2-5.1-4.1c0-1.2,0.6-3.9,4-3.9h8.2c0.5,0,0.8,0.3,0.8,0.8V42z M101.7,45.5h-5.4c-2.8,0-4.7-2.1-4.7-4.7V26.7
	c0-0.5,0.3-0.8,0.8-0.8h8.5c0.9,0,1.6-0.7,1.6-1.6v-6.2c0-0.9-0.7-1.6-1.6-1.6h-8.5c-0.5,0-0.8-0.3-0.8-0.8V4c0-0.9-0.7-1.6-1.6-1.6
	h-7c-0.9,0-1.6,0.7-1.6,1.6v11.9c0,0.5-0.3,0.8-0.8,0.8h-6.1c-0.9,0-1.6,0.7-1.6,1.6v6.2c0,0.9,0.7,1.6,1.6,1.6h6.1
	c0.5,0,0.8,0.3,0.8,0.8V41c0,8.8,5.9,14.2,14.7,14.2h5.4c0.9,0,1.6-0.7,1.6-1.6V47C103.3,46.1,102.6,45.5,101.7,45.5z M156,30.7
	c-3.2-0.6-6.2-1.1-6.2-3.5c0-2.2,2.7-3.2,6.2-3.2c2.9,0,5.8,1,6.2,3.6c0.2,1.6,1,1.9,1.8,1.9h5.8c0.9,0,1.6-0.7,1.6-1.6
	c0-9-8.4-12.5-15.4-12.5c-7.5,0-15.6,4.8-15.6,11.7c0,9.1,9.2,11.8,15.6,12.7c3.6,0.5,7.1,0.6,7.1,3.3c0,2.4-2.9,4.3-7.1,4.3
	c-3.6,0-6.5-0.6-6.8-3.5c-0.1-1.3-0.5-1.9-2.3-1.9H141c-0.9,0-1.6,0.7-1.6,1.6c0,9.8,8.1,12.4,16.6,12.4c8.8,0,16.4-5,16.4-12.6
	C172.5,32.7,162.8,32,156,30.7z M210.3,0.9h-7.8c-0.9,0-1.6,0.7-1.6,1.6v29.2c0,0.5-0.5,0.6-0.7,0.2L189.6,2.2
	c-0.2-0.7-0.8-1.4-1.9-1.4h-9.2c-0.9,0-1.6,0.7-1.6,1.6v51.2c0,0.9,0.7,1.6,1.6,1.6h7.8c0.9,0,1.6-0.7,1.6-1.6V26.8
	c0-0.5,0.5-0.6,0.7-0.2L199,53.8c0.2,0.6,0.8,1.3,2.1,1.3h9.2c0.9,0,1.6-0.7,1.6-1.6V2.4C211.8,1.6,211.1,0.9,210.3,0.9z
	 M231.4,15.5c-9.5,0-15,6.3-16.1,14.4c-0.4,3.1-0.4,8.5,0,11.6c1,8.1,6.6,14.4,16.1,14.4c9.5,0,15-6.3,16.1-14.4
	c0.4-3.1,0.4-8.5,0-11.6C246.5,21.8,240.9,15.5,231.4,15.5z M237.4,41.6c-0.4,2.6-2.1,4.3-6,4.3c-3.9,0-5.6-1.6-6-4.3
	c-0.5-3.1-0.5-8.5,0-11.6c0.5-2.9,2.1-4.3,6-4.3c4,0,5.7,1.8,6,4.3C237.9,33,237.9,38.5,237.4,41.6z M276.8,45.5h-5.4
	c-2.8,0-4.7-2.1-4.7-4.7V26.7c0-0.5,0.3-0.8,0.8-0.8h8.5c0.9,0,1.6-0.7,1.6-1.6v-6.2c0-0.9-0.7-1.6-1.6-1.6h-8.5
	c-0.5,0-0.8-0.3-0.8-0.8V4c0-0.9-0.7-1.6-1.6-1.6h-7c-0.9,0-1.6,0.7-1.6,1.6v11.9c0,0.5-0.3,0.8-0.8,0.8h-6.1
	c-0.9,0-1.6,0.7-1.6,1.6v6.2c0,0.9,0.7,1.6,1.6,1.6h6.1c0.5,0,0.8,0.3,0.8,0.8V41c0,8.8,5.9,14.2,14.7,14.2h5.4
	c0.9,0,1.6-0.7,1.6-1.6V47C278.3,46.1,277.6,45.5,276.8,45.5z M296.4,15.5c-9.5,0-15,6.3-16.1,14.4c-0.4,3.1-0.4,8.5,0,11.6
	c1,8.1,6.6,14.4,16.1,14.4c8.6,0,13.9-5,15.7-12.3c0.3-1.2-0.5-1.7-1.3-1.7h-6.4c-0.7,0-1.4,0.3-1.8,1.3c-1,2.5-3.1,3.3-6.1,3.3
	c-3.7,0-6.8-2.3-6.8-6.6c0-0.7,0.5-1.2,1.2-1.2h19.9c0.9,0,1.6-0.7,1.6-1.6v-6.4C312.2,21,305.7,15.5,296.4,15.5z M302.2,30.2h-11.8
	c-0.5,0-0.8-0.2-0.8-0.7c0-2.9,2.3-4.9,6.7-4.9c3.3,0,6.6,1.6,6.6,4.9C303,30,302.7,30.2,302.2,30.2z M331.1,30.7
	c-3.2-0.6-6.2-1.1-6.2-3.5c0-2.2,2.7-3.2,6.2-3.2c2.9,0,5.8,1,6.2,3.6c0.2,1.6,1,1.9,1.8,1.9h5.8c0.9,0,1.6-0.7,1.6-1.6
	c0-9-8.4-12.5-15.4-12.5c-7.5,0-15.6,4.8-15.6,11.7c0,9.1,9.2,11.8,15.6,12.7c3.6,0.5,7.1,0.6,7.1,3.3c0,2.4-2.9,4.3-7.1,4.3
	c-3.6,0-6.5-0.6-6.8-3.5c-0.1-1.3-0.5-1.9-2.3-1.9H316c-0.9,0-1.6,0.7-1.6,1.6c0,9.8,8.1,12.4,16.6,12.4c8.8,0,16.4-5,16.4-12.6
	C347.5,32.7,337.9,32,331.1,30.7z"/>
</svg>
